<svg id="Layer_11" data-name="Layer 11" xmlns="http://www.w3.org/2000/svg" viewBox="0 0 140.91 91.98"><defs><style>.cls-1{fill:none;stroke:#fd7e14;stroke-linejoin:bevel;stroke-width:8px;}.cls-2{fill:#fd7e14;}</style></defs><path class="cls-1" d="M117,117H33a24.5,24.5,0,0,1-8.61-47.43,3.48,3.48,0,0,0,2.17-2.41A17.45,17.45,0,0,1,43.54,54a18.15,18.15,0,0,1,3.37.32,3.5,3.5,0,0,0,3.79-1.88A34.72,34.72,0,0,1,82,33a35.14,35.14,0,0,1,34.86,32A3.51,3.51,0,0,0,120,68.19a24.49,24.49,0,0,1-3,48.8Z" transform="translate(-4.54 -29.01)"/><path class="cls-2" d="M41,89.66a2.84,2.84,0,1,1,2.46-4.25,2.83,2.83,0,0,0,4.91-2.83A8.5,8.5,0,1,0,41,95.33a2.84,2.84,0,1,1-2.45,4.25,2.83,2.83,0,0,0-4.91,2.83A8.5,8.5,0,1,0,41,89.66Z" transform="translate(-4.54 -29.01)"/><path class="cls-2" d="M109,89.66a2.84,2.84,0,1,1,2.46-4.25,2.83,2.83,0,0,0,4.9-2.83A8.5,8.5,0,1,0,109,95.33a2.84,2.84,0,1,1-2.46,4.25,2.83,2.83,0,0,0-4.9,2.83A8.5,8.5,0,1,0,109,89.66Z" transform="translate(-4.54 -29.01)"/><path class="cls-2" d="M63.7,89.66a8.51,8.51,0,0,0-.12,17,8.72,8.72,0,0,0,3.76-.85,2.84,2.84,0,0,0,4.86-2V98.16A8.51,8.51,0,0,0,63.7,89.66Zm0,11.34a2.84,2.84,0,1,1,2.83-2.84A2.84,2.84,0,0,1,63.7,101Z" transform="translate(-4.54 -29.01)"/><path class="cls-2" d="M86.37,89.66a8.51,8.51,0,0,0-.12,17,8.8,8.8,0,0,0,3.77-.85,2.83,2.83,0,0,0,4.85-2V98.16A8.51,8.51,0,0,0,86.37,89.66Zm0,11.34a2.84,2.84,0,1,1,2.83-2.84A2.84,2.84,0,0,1,86.37,101Z" transform="translate(-4.54 -29.01)"/><path class="cls-2" d="M62.29,64.68a3,3,0,0,0,4-1.36h0a17.94,17.94,0,0,1,16.19-10,3,3,0,0,0,0-6,24,24,0,0,0-21.6,13.39,3,3,0,0,0,1.37,4Z" transform="translate(-4.54 -29.01)"/></svg>