<svg id="Layer_9" data-name="Layer 9" xmlns="http://www.w3.org/2000/svg" viewBox="0 0 132.4 136.92"><defs><style>.cls-1{fill:none;stroke:#fd7e14;stroke-miterlimit:10;stroke-width:6px;}</style></defs><path class="cls-1" d="M41,45.41" transform="translate(-8.8 -6.54)"/><path class="cls-1" d="M109,102.13" transform="translate(-8.8 -6.54)"/><path class="cls-1" d="M41,45.41H19.92a8.13,8.13,0,0,0-8.12,8.12v48.72a8.13,8.13,0,0,0,8.12,8.12H35.36a8.13,8.13,0,0,1,8.13,8.23L43.23,138a2.38,2.38,0,0,0,4.11,1.69l28.51-29.8,14.83.34c4.53.06,8.24-6.75,8.24-11.28" transform="translate(-8.8 -6.54)"/><path class="cls-1" d="M49.11,9.54h81a8.13,8.13,0,0,1,8.12,8.12V66.37a8.13,8.13,0,0,1-8.12,8.13H114.64a8.13,8.13,0,0,0-8.13,8.23l.26,19.43a2.39,2.39,0,0,1-4.11,1.69L74.15,74.05l-24.93.34A8.13,8.13,0,0,1,41,66.26V17.66A8.12,8.12,0,0,1,49.11,9.54Z" transform="translate(-8.8 -6.54)"/><line class="cls-1" x1="129.4" y1="28.52" x2="32.19" y2="28.52"/><line class="cls-1" x1="129.4" y1="50.53" x2="32.19" y2="50.53"/></svg>