<?xml version="1.0" encoding="utf-8"?>
<!-- Generator: Adobe Illustrator 24.3.0, SVG Export Plug-In . SVG Version: 6.00 Build 0)  -->
<svg version="1.1" id="Layer_1" xmlns="http://www.w3.org/2000/svg" xmlns:xlink="http://www.w3.org/1999/xlink" x="0px" y="0px"
	 viewBox="0 0 700 700" style="enable-background:new 0 0 700 700;" xml:space="preserve">
<style type="text/css">
	.st0{fill:none;stroke:#FD7E14;stroke-width:30;stroke-linecap:round;stroke-linejoin:round;stroke-miterlimit:10;}
	.st1{fill:none;stroke:#F57D20;stroke-width:30;stroke-miterlimit:10;}
</style>
<polyline class="st0" points="105,117.5 272.6,217.3 272.6,29.1 "/>
<polyline class="st0" points="591.7,574.3 423.5,475.5 424.6,663.7 "/>
<polyline class="st0" points="270.8,670.9 269.9,475.9 108.6,572.9 "/>
<polyline class="st0" points="591.5,126.1 424.6,227 423.3,38.8 "/>
<polyline class="st0" points="35.2,446.6 200.2,342.6 32.5,257.1 "/>
<polyline class="st0" points="664.8,443.1 499.8,339.1 667.5,253.6 "/>
<path class="st1" d="M428.8,356.3l-77.5,77.5c-2.4,2.4-6.4,2.4-8.8,0l-77.5-77.5c-2.4-2.4-2.4-6.4,0-8.8l77.5-77.5
	c2.4-2.4,6.4-2.4,8.8,0l77.5,77.5C431.3,349.9,431.3,353.8,428.8,356.3z"/>
</svg>
