<svg id="Layer_1" data-name="Layer 1" xmlns="http://www.w3.org/2000/svg" viewBox="0 0 611.16 491.94"><defs><style>.cls-1{fill:none;stroke:#000;stroke-miterlimit:10;stroke-width:15px;}</style></defs><path class="cls-1" d="M215.69,345.43c107,0,193.76-73.41,193.76-164S322.72,17.53,215.69,17.53s-193.76,73.4-193.76,164c0,36,13.69,69.21,36.89,96.32a86.65,86.65,0,0,1-13.23,23A107,107,0,0,1,33.2,314.13c-1.68,1.49-3.07,2.7-4,3.44a7.36,7.36,0,0,1-1,.75l-.18.19h0a14.84,14.84,0,0,0-5.31,16.58,15.11,15.11,0,0,0,14.15,10.34c20.31,0,40.81-5.22,57.85-11.65a206.67,206.67,0,0,0,23.57-10.62C146.85,337.32,180.1,345.43,215.69,345.43Zm223.57-164c0,104.61-92.32,183.42-201.68,192.82,22.64,69.31,97.72,120.17,186.77,120.17a220.18,220.18,0,0,0,97.53-22.26,206.76,206.76,0,0,0,23.48,10.62c17,6.43,37.54,11.64,57.85,11.64a14.94,14.94,0,0,0,8.75-27h0l-.18-.19c-.19-.18-.56-.37-1-.74-.93-.75-2.33-1.87-4-3.45a106.33,106.33,0,0,1-12.39-13.32,87.81,87.81,0,0,1-13.23-23c23.19-27,36.89-60.27,36.89-96.32C618,244,538.93,173.09,438.6,167c.38,4.75.56,9.59.56,14.43Z" transform="translate(-14.42 -10.03)"/></svg>